<?xml version="1.0" encoding="UTF-8"?>
<svg id="Calque_1" data-name="Calque 1" xmlns="http://www.w3.org/2000/svg" version="1.1" viewBox="0 0 208 211">
  <defs>
    <style>
      .cls-1 {
        fill: #2372b9;
      }

      .cls-1, .cls-2 {
        stroke-width: 0px;
      }

      .cls-2 {
        fill: #fff;
      }
    </style>
  </defs>
  <path class="cls-1" d="M178.57,205.5c3.85,0,7.71-.53,11.32-1.87,8.87-3.3,14.29-10.13,14.29-24.19l.05-173.94H53.7C24.03,5.77,3.77,27.9,3.77,57.53l.1,147.97h174.71Z"/>
  <path class="cls-2" d="M168.61,108.13v4.99c2.7-.45,4.51-1.69,4.77-4.99h-4.77Z"/>
  <g>
    <path class="cls-2" d="M47.8,126.94c0,5.58-3.05,8.63-8.59,8.63s-8.59-3.05-8.59-8.63v-15.65c0-.56.3-.86.85-.86h2.75c.56,0,.85.3.85.86v15.32c0,3.46,1.34,5.09,4.16,5.09s4.2-1.64,4.2-5.09v-15.32c0-.56.3-.86.86-.86h2.64c.56,0,.86.3.86.86v15.65Z"/>
    <path class="cls-2" d="M62.34,123.41c0-2.53-.97-3.72-3.01-3.72s-3.05,1.19-3.05,3.72v10.86c0,.56-.3.86-.85.86h-2.34c-.56,0-.85-.3-.85-.86v-11.12c0-4.54,2.49-6.95,7.1-6.95s7.06,2.42,7.06,6.95v11.12c0,.56-.3.86-.85.86h-2.34c-.56,0-.86-.3-.86-.86v-10.86Z"/>
    <path class="cls-2" d="M70.33,111.14c0-1.38,1-2.38,2.42-2.38s2.42,1,2.42,2.38-1,2.42-2.42,2.42-2.42-1-2.42-2.42ZM71.55,135.12c-.56,0-.85-.3-.85-.86v-16.77c0-.56.3-.86.85-.86h2.34c.56,0,.86.3.86.86v16.77c0,.56-.3.86-.86.86h-2.34Z"/>
    <path class="cls-2" d="M92.74,116.64c.63,0,.89.37.71.97l-5.47,16.81c-.15.48-.45.71-.97.71h-2.9c-.52,0-.82-.22-.97-.71l-5.5-16.81c-.19-.59.11-.97.74-.97h2.57c.48,0,.82.22.97.71l3.68,12.72h.07l3.72-12.72c.15-.48.48-.71.97-.71h2.38Z"/>
    <path class="cls-2" d="M109.99,123.26v3.05c0,.56-.3.85-.86.85h-9.29v.74c0,2.94,1.19,4.16,3.87,4.16,1.26,0,2.31-.41,3.35-1.26.45-.37.85-.37,1.19.11l1,1.45c.3.41.26.82-.15,1.19-1.45,1.3-3.42,2.01-5.54,2.01-5.09,0-7.77-2.42-7.77-7.36v-4.95c0-4.57,2.53-7.06,7.1-7.06s7.1,2.49,7.1,7.06ZM106.12,123.56c0-2.6-1-3.87-3.12-3.87s-3.16,1.26-3.16,3.87v.56h6.28v-.56Z"/>
    <path class="cls-2" d="M113.3,123.19c0-4.57,2.19-6.99,6.47-6.99,1.6,0,2.98.33,4.17,1.04.45.26.52.71.3,1.15l-.86,1.52c-.26.52-.63.56-1.15.3-.63-.33-1.34-.52-2.04-.52-1.9,0-2.83,1.12-2.83,3.38v11.19c0,.56-.3.86-.85.86h-2.34c-.56,0-.86-.3-.86-.86v-11.08Z"/>
    <path class="cls-2" d="M133,135.57c-2.98,0-5.06-.59-6.73-1.97-.41-.34-.45-.74-.19-1.19l1-1.53c.3-.48.71-.52,1.15-.19,1.26.89,2.79,1.41,4.28,1.41,1.93,0,3.01-.82,3.01-2.23,0-1.23-.82-1.82-3.46-2.23-4.35-.67-5.91-2.38-5.91-5.76s2.68-5.69,6.77-5.69c2.12,0,4.09.52,5.5,1.45.45.3.48.71.22,1.19l-.93,1.49c-.3.48-.67.52-1.15.22-.93-.6-2.05-.89-3.2-.89-2.05,0-3.16.78-3.16,2.23,0,1.15.78,1.67,3.31,2.05,4.39.63,6.02,2.42,6.02,5.95s-2.53,5.69-6.54,5.69Z"/>
    <path class="cls-2" d="M142.18,111.14c0-1.38,1-2.38,2.42-2.38s2.42,1,2.42,2.38-1,2.42-2.42,2.42-2.42-1-2.42-2.42ZM143.4,135.12c-.56,0-.85-.3-.85-.86v-16.77c0-.56.3-.86.85-.86h2.34c.56,0,.86.3.86.86v16.77c0,.56-.3.86-.86.86h-2.34Z"/>
    <path class="cls-2" d="M161.7,133.89c.15.48.04.89-.45,1.12-.82.37-1.9.56-3.12.56-4.16,0-6.25-2.12-6.25-6.28v-9.15h-1.56c-.56,0-.85-.3-.85-.85v-1.79c0-.56.3-.86.85-.86h1.56v-3.98c0-.56.3-.86.86-.86h2.34c.56,0,.86.3.86.86v3.98h4.5c.56,0,.86.3.86.86v1.79c0,.56-.3.85-.86.85h-4.5v9.15c0,1.82.93,2.79,2.68,2.79.52,0,1.04-.11,1.53-.3.52-.19.93-.07,1.08.48l.48,1.64Z"/>
    <path class="cls-2" d="M178.02,123.26v3.05c0,.56-.3.85-.86.85h-9.29v.74c0,2.94,1.19,4.16,3.87,4.16,1.26,0,2.31-.41,3.35-1.26.45-.37.85-.37,1.19.11l1,1.45c.3.41.26.82-.15,1.19-1.45,1.3-3.42,2.01-5.54,2.01-5.1,0-7.77-2.42-7.77-7.36v-4.95c0-4.57,2.53-7.06,7.1-7.06s7.1,2.49,7.1,7.06ZM174.15,123.56c0-2.6-1-3.87-3.12-3.87s-3.16,1.26-3.16,3.87v.56h6.28v-.56Z"/>
  </g>
  <g>
    <path class="cls-2" d="M49.48,101.21c0,.45-.24.7-.7.7h-11.02c-.45,0-.7-.24-.7-.7v-18.7c0-.45.24-.7.7-.7h2.24c.45,0,.7.24.7.7v16.25h8.08c.45,0,.7.24.7.7v1.75Z"/>
    <path class="cls-2" d="M62.8,92.49v4.03c0,3.69-2.09,5.75-5.93,5.75s-5.63-1.69-5.63-4.78,1.91-4.6,5.45-4.6h2.81v-.15c0-2.39-.94-3.39-3.03-3.39-.97,0-1.91.39-2.66.97-.36.27-.7.24-.97-.15l-.82-1.27c-.24-.36-.21-.7.15-.97,1.36-.97,2.84-1.42,4.6-1.42,3.87,0,6.02,2.03,6.02,5.99ZM59.5,96.25v-.91h-2.36c-1.63,0-2.6.73-2.6,2.06s.85,2.03,2.33,2.03c1.82,0,2.63-1.03,2.63-3.18Z"/>
    <path class="cls-2" d="M76.78,101.21c0,.45-.24.7-.7.7h-2.24c-.45,0-.7-.24-.7-.7v-18.7c0-.45.24-.7.7-.7h5.57c4.93,0,7.29,2.03,7.29,6.2,0,3.15-1.3,5.11-4,5.9l4.12,7.14c.27.48.09.85-.48.85h-2.6c-.39,0-.67-.15-.85-.48l-3.69-7.08h-2.42v6.87ZM79.41,91.19c2.51,0,3.63-1,3.63-3.09s-1.12-3.15-3.63-3.15h-2.63v6.23h2.63Z"/>
    <path class="cls-2" d="M101.42,92.25v4.27c0,3.72-2.09,5.75-5.87,5.75s-5.9-2.03-5.9-5.75v-4.27c0-3.72,2.09-5.75,5.9-5.75s5.87,2.03,5.87,5.75ZM98.12,92.49c0-2.12-.85-3.15-2.57-3.15s-2.6,1.03-2.6,3.15v3.75c0,2.15.85,3.18,2.6,3.18s2.57-1.03,2.57-3.18v-3.75Z"/>
    <path class="cls-2" d="M114.43,99.85c.24.33.21.7-.09.97-1.06.91-2.45,1.45-4.12,1.45-3.78,0-5.99-2.06-5.99-5.99v-3.81c0-3.93,2.15-5.96,5.9-5.96,1.64,0,2.97.42,3.91,1.18.33.24.36.6.09.97l-.85,1.18c-.27.36-.57.36-.97.09-.51-.36-1.15-.58-1.97-.58-1.85,0-2.81,1.03-2.81,3.39v3.3c0,2.36,1.03,3.39,2.97,3.39.82,0,1.51-.27,2.15-.82.36-.3.7-.3.97.09l.82,1.15Z"/>
    <path class="cls-2" d="M128.56,92.16v9.05c0,.45-.24.7-.7.7h-1.91c-.45,0-.7-.24-.7-.7v-8.84c0-2.06-.79-3.03-2.48-3.03s-2.48,1.03-2.48,3.03v8.84c0,.45-.24.7-.7.7h-1.91c-.45,0-.7-.24-.7-.7v-19.79c0-.45.24-.7.7-.7h1.91c.45,0,.7.24.7.7v6.23h.06c.73-.79,1.79-1.15,3.15-1.15,3.27,0,5.05,1.97,5.05,5.66Z"/>
    <path class="cls-2" d="M143.3,92.25v2.48c0,.45-.24.7-.7.7h-7.57v.6c0,2.39.97,3.39,3.15,3.39,1.03,0,1.88-.33,2.72-1.03.36-.3.7-.3.97.09l.82,1.18c.24.33.21.67-.12.97-1.18,1.06-2.78,1.63-4.51,1.63-4.15,0-6.33-1.97-6.33-5.99v-4.03c0-3.72,2.06-5.75,5.78-5.75s5.78,2.03,5.78,5.75ZM140.15,92.49c0-2.12-.82-3.15-2.54-3.15s-2.57,1.03-2.57,3.15v.45h5.11v-.45Z"/>
    <path class="cls-2" d="M146.97,101.9c-.45,0-.7-.24-.7-.7v-19.79c0-.45.24-.7.7-.7h1.91c.45,0,.7.24.7.7v19.79c0,.45-.24.7-.7.7h-1.91Z"/>
    <path class="cls-2" d="M154.05,101.9c-.45,0-.7-.24-.7-.7v-19.79c0-.45.24-.7.7-.7h1.91c.45,0,.7.24.7.7v19.79c0,.45-.24.7-.7.7h-1.91Z"/>
    <path class="cls-2" d="M171.51,92.25v2.48c0,.45-.24.7-.7.7h-7.57v.6c0,2.39.97,3.39,3.15,3.39,1.03,0,1.88-.33,2.72-1.03.36-.3.7-.3.97.09l.82,1.18c.24.33.21.67-.12.97-1.18,1.06-2.79,1.63-4.51,1.63-4.15,0-6.32-1.97-6.32-5.99v-4.03c0-3.72,2.06-5.75,5.78-5.75s5.78,2.03,5.78,5.75ZM168.36,92.49c0-2.12-.82-3.15-2.54-3.15s-2.57,1.03-2.57,3.15v.45h5.11v-.45Z"/>
  </g>
  <rect class="cls-2" x="57.45" y="156.36" width="92.62" height="4.82"/>
</svg>